<svg xmlns="http://www.w3.org/2000/svg" viewBox="0 0 800 91.456"><path fill="gold" d="M33.876 91.35c-1.001-.355-2.623-1.161-4.58-2.277-2.064-1.177-4.361-2.759-6.085-4.19a58 58 0 0 1-4.76-4.422c-1.68-1.744-2.3-2.46-3.467-4.007-2.048-2.716-3.711-5.35-4.92-7.79-1.37-2.77-2.237-4.944-3.092-7.761-.75-2.474-1.435-5.982-1.66-8.492-.237-2.672.031-6.238.647-8.583.348-1.328.713-2.476 1.034-3.252l.194-.468-.553-.317C4.017 38.29 1.88 36.219.775 34.112c-.649-1.236-.86-2.31-.668-3.378.15-.828.333-1.453.62-2.107.813-1.854 2.585-3.71 4.952-5.188a23 23 0 0 1 4.207-2.04c1.455-.515 4.142-1.297 5.134-1.495.231-.046.246-.061.36-.392.119-.347.618-2.66 1.274-5.908.463-2.29.643-3.037.97-4.018.505-1.52 1.085-2.728 1.9-3.963.486-.735.9-1.247 1.531-1.894C23.23 1.504 25.96.308 29.49.035c1.867-.145 5.266.132 7.4.603 1.21.267 3.336.95 4.56 1.465 1.376.58 3.035 1.43 4.151 2.126.587.366.71.418.944.398.104-.009.644-.133 1.2-.276 1.184-.305 1.553-.371 2.075-.371.545 0 2.21.198 2.935.349.716.149 1.158.41 1.835 1.089.573.572.837.938 1.165 1.611.448.919.633 1.558.807 2.794.081.572.107 2.516.054 4.088-.023.675-.131 3.298-.24 5.829s-.217 5.03-.238 5.551c-.02.523-.044 1.036-.052 1.14l-.015.19.207.058c1.484.419 8.532 2.718 9.566 3.122 1.869.729 2.782 1.593 2.785 2.633.001.7-.355 1.354-1.184 2.171-1.137 1.12-3.219 2.417-5.832 3.633l-.823.383.227.476c.701 1.472 1.098 2.556 1.583 4.335.263.962.388 1.552.512 2.423.361 2.535.422 4.626.201 6.957-.21 2.217-.892 5.655-1.569 7.908a48.6 48.6 0 0 1-3.289 8.236c-1.322 2.625-3.511 5.964-5.71 8.711-.546.68-1.354 1.573-2.53 2.794a58 58 0 0 1-5.162 4.753c-1.529 1.236-3.877 2.836-5.606 3.82-2.458 1.397-4.635 2.423-5.138 2.42a1.8 1.8 0 0 1-.432-.104zm1.239-3.98c1.947-1.004 4.02-2.224 5.169-3.04 2.364-1.68 4.614-3.546 6.269-5.2a50 50 0 0 0 5.392-6.412c1.008-1.417 2.54-4.002 3.46-5.84 1.062-2.12 1.696-3.619 2.304-5.446.552-1.658.811-2.605 1.218-4.456.606-2.76.745-3.918.779-6.525.032-2.477-.087-3.774-.503-5.491-.445-1.838-.96-3.316-1.608-4.607L57.42 40l-.449.163c-2.355.855-6.006 1.934-8.192 2.42-1.286.286-3.45.682-4.694.859-1.399.199-3.72.405-5.168.46-1.069.04-1.603.073-3.305.2-2.562.192-3.47.23-6.045.26-3.14.035-4.554-.023-7.261-.298-3.003-.305-6.122-.756-7.349-1.063-1.073-.268-3.023-.857-3.938-1.19-.278-.1-.518-.169-.534-.151-.068.077-.462 1.256-.729 2.186-.657 2.285-.833 3.743-.795 6.605.037 2.877.249 4.397 1.106 7.95.453 1.879 1.247 4.24 1.997 5.935 1.112 2.517 2.245 4.635 3.781 7.067 1.475 2.337 3.77 5.187 6.07 7.537 1.543 1.578 4.094 3.704 6.472 5.394 1.151.818 3.193 2.016 5.253 3.081.371.193.682.35.69.35.009 0 .362-.177.786-.396m-1.422-6.423a13 13 0 0 1-2.373-.504c-.967-.32-1.31-.507-2.126-1.157-.943-.753-1.265-1.088-1.782-1.856-.275-.409-.55-.92-.584-1.086-.083-.395.362-.925.774-.922.217 0 .4.108.844.496.669.584.775.664 1.102.833.6.31 1.487.64 2.066.767 1.962.432 4.41.359 6.086-.184.87-.28 1.36-.518 2.302-1.116.954-.605 1.26-.76 1.492-.76.225 0 .414.091.589.284.242.268.277.628.09.905-.325.48-1.749 1.874-2.654 2.6-.636.51-.969.726-1.552 1.013-.844.415-1.503.587-2.586.675-.44.035-1.363.042-1.688.012zm-6.19-10.896c-1.447-.074-2.11-.171-3.342-.49-1.1-.283-1.913-.58-3.207-1.167-.726-.33-1.13-.552-1.724-.945-1.756-1.165-3.958-3.325-5.035-4.938-.432-.646-1.193-2.233-1.569-3.27-.493-1.363-.761-2.787-.825-4.387-.031-.774.002-1.881.065-2.205.036-.183.324-1.227.344-1.248.006-.006.656-.03 1.443-.055 1.952-.061 3.18.006 4.536.249 1.256.225 2.77.735 4.315 1.455 1.497.697 2.202 1.167 3.467 2.308 1.262 1.14 2.264 2.173 2.749 2.835.94 1.285 2.025 3.677 2.473 5.45.128.507.266 1.427.348 2.319.076.824.055 2.508-.035 2.903-.163.708-.517 1.022-1.3 1.151-.327.054-1.926.074-2.704.035zm10.919 0c-.375-.056-.618-.173-.86-.416-.263-.263-.358-.48-.437-1.004-.07-.468-.07-1.922.002-2.697.126-1.375.272-2.147.592-3.13.652-2.007 1.659-3.983 2.596-5.097.578-.686 2.381-2.403 3.26-3.105.965-.77 2.222-1.455 3.836-2.093 2.5-.987 4.323-1.266 7.601-1.163.788.024 1.437.05 1.443.055.022.022.298 1.037.334 1.23.072.38.085.63.084 1.546-.005 2.745-.525 4.796-1.886 7.429a9.4 9.4 0 0 1-.944 1.507c-1.227 1.572-3.096 3.331-4.608 4.336-.817.544-1.44.858-2.702 1.361-1.548.618-2.406.853-3.796 1.04-1.441.193-3.84.3-4.515.2zm-.565-14.984c-.219-.104-.362-.295-.424-.563-.075-.324.03-.66.456-1.453.886-1.655 2.834-3.659 4.895-5.037.832-.556 2.626-1.344 3.82-1.679 1.674-.467 3.799-.734 4.41-.552a.68.68 0 0 1 .45.44c.056.17.03.581-.047.729-.173.333-.584.578-1.593.95-1.736.639-3.298 1.397-5.1 2.475-1.38.825-2.835 1.914-4.53 3.387-1.493 1.3-1.885 1.518-2.337 1.303zm-7.79-.06c-.34-.164-.655-.408-1.76-1.372-2.117-1.844-3.644-2.91-5.978-4.176a29 29 0 0 0-3.483-1.556c-1.01-.371-1.424-.617-1.593-.943-.08-.155-.108-.563-.05-.737a.68.68 0 0 1 .448-.44c.61-.181 2.762.088 4.404.55 1.21.34 2.994 1.124 3.826 1.68a18.3 18.3 0 0 1 2.717 2.24c.956.962 1.696 1.911 2.182 2.798.498.908.58 1.252.387 1.625-.144.28-.342.413-.643.43-.194.01-.261-.005-.457-.098m.175-15.743c7.763-.219 13.78-1.047 18.013-2.481a16.6 16.6 0 0 0 2.167-.878c1.07-.517 1.784-.995 2.39-1.602l.345-.346-.656-.644a24 24 0 0 0-2.39-2.047l-.59-.448-.272.026c-.15.014-.748.155-1.34.315-1.967.535-4.35 1.105-5.853 1.399-2.014.394-4.4.72-6.409.877-1.858.145-4.352.19-5.533.1-2.39-.181-4.331-.415-5.844-.702-1.167-.222-2.718-.652-3.446-.955-.237-.1-.297-.11-.511-.092-.418.035-1.214.316-1.96.69-1.203.605-1.993 1.319-2.288 2.07-.12.307-.117.82.008 1.12.33.793 1.147 1.487 2.614 2.22 1.026.514 2.14.864 3.501 1.103.74.13 1.11.157 2.74.204.803.023 1.715.054 2.027.069.86.04 1.896.041 3.287.002z"/><path fill="#58a6ff" d="M94.598 30.03h9.13l10.268 28.326q.324.974.568 2.192.325 1.257.528 2.394.243 1.34.446 2.719h.69l-.122-.893q-.122-.893-.284-2.232-.122-1.38-.284-3.044-.122-1.664-.122-3.206V30.03h6.574V72.64h-9.13l-10.065-28.408q-.446-1.177-.73-2.435t-.487-2.354q-.243-1.258-.406-2.516h-.69q.163 1.42.325 3.044.122 1.34.243 3.003.122 1.623.122 3.328V72.64h-6.574zm49.389 43.22q-3.166 0-5.844-.893-2.638-.933-4.464-2.597t-2.841-4.018q-1.015-2.394-1.015-5.275v-8.239q0-2.881 1.015-5.275 1.015-2.354 2.84-4.018 1.827-1.664 4.465-2.557 2.678-.892 5.844-.892 3.206 0 5.844.974 2.597.892 4.423 2.516 1.867 1.663 2.841 4.058 1.015 2.354 1.015 5.235v5.925h-20.94v2.151q0 3.247 1.785 5.073 1.867 1.867 5.032 1.867 2.435 0 4.1-.73 1.744-.772 2.434-2.192h7.305q-.528 2.029-1.786 3.652-1.258 1.664-3.084 2.84-1.786 1.137-4.099 1.786-2.232.61-4.87.61zm-6.818-20.007h13.636v-.974q0-3.247-1.745-5.032-1.786-1.826-5.073-1.826-3.165 0-5.032 1.826-1.786 1.785-1.786 4.991zm29.666 19.398v-6.737h11.688V46.79h-10.186v-6.696h17.329v25.81h9.415v6.737zm9.537-41.353q0-1.704 1.136-2.8 1.177-1.096 3.085-1.096h1.542q1.907 0 3.043 1.096 1.177 1.096 1.177 2.8 0 1.786-1.177 2.84-1.217 1.056-3.084 1.056h-1.502q-1.907 0-3.084-1.055-1.136-1.055-1.136-2.841zm25.607-1.826h7.386v23.497h5.235l8.117-12.865h8.319L220.93 55.962l10.267 16.679h-8.482L214.6 59.289h-5.235V72.64h-7.386zm35.875 43.22v-6.737h11.688V46.831h-10.227v-6.696h17.329v25.81h9.456v6.737zm9.537-41.353q0-1.745 1.136-2.8 1.177-1.137 3.084-1.137h1.542q1.867 0 3.004 1.137 1.176 1.055 1.176 2.8t-1.176 2.84q-1.177 1.056-3.085 1.056h-1.46q-1.908 0-3.085-1.055-1.136-1.096-1.136-2.841zm43.342 12.54h-9.456l7.71-18.424h6.494zm32.506 29.422h-2.354q-5.763 0-9.212-2.313-3.369-2.354-3.896-6.615h7.589q.365 1.542 1.826 2.435 1.502.811 3.693.811h2.354q2.8 0 4.301-1.055 1.542-1.136 1.542-3.003 0-3.287-5.072-3.977l-4.627-.528q-5.56-.73-8.238-3.084t-2.678-6.818q0-4.626 3.206-7.102 3.287-2.475 9.334-2.475h2.435q5.397 0 8.644 2.313 3.327 2.232 3.936 6.331h-7.63q-.284-1.38-1.623-2.15-1.339-.812-3.328-.812h-2.434q-5.236 0-5.236 3.652 0 3.165 4.383 3.693l4.83.65q5.803.69 8.603 3.205 2.76 2.395 2.76 6.859 0 4.788-3.369 7.386-3.368 2.597-9.74 2.597m56.856-.568V30.07h26.947v6.818H387.44v10.957H405.5v6.817h-17.937v18.06zm35.915 0v-6.778h11.647V46.831H417.47v-6.696H434.8v25.81h9.415v6.778zm9.577-41.394q0-1.705 1.096-2.8 1.217-1.096 3.084-1.096h1.542q1.908 0 3.044 1.096 1.177 1.095 1.177 2.8 0 1.785-1.177 2.84-1.177 1.056-3.084 1.056h-1.502q-1.867 0-3.084-1.055-1.096-1.056-1.096-2.841m22.645-1.826h17.816v32.669q0 1.826 1.015 2.84 1.055 1.015 2.76 1.015h9.74v6.696h-10.268q-4.992 0-7.832-2.8-2.841-2.76-2.841-7.751V36.199h-10.39zm51.661 43.788q-3.206 0-5.844-.893-2.638-.934-4.464-2.597-1.826-1.664-2.84-4.018-1.015-2.394-1.015-5.276V52.27q0-2.881 1.014-5.276 1.015-2.353 2.841-4.017t4.464-2.516q2.638-.893 5.844-.893t5.844.933q2.597.893 4.424 2.557 1.826 1.664 2.84 4.018 1.015 2.353 1.015 5.275v5.925h-20.94v2.11q0 3.247 1.785 5.114 1.827 1.826 5.033 1.826 2.435 0 4.098-.73 1.745-.771 2.435-2.192h7.305q-.527 2.03-1.785 3.693t-3.085 2.841q-1.785 1.096-4.098 1.786-2.232.568-4.87.568zm-6.818-20.007h13.636v-.934q0-3.287-1.745-5.032-1.785-1.826-5.072-1.826-3.206 0-5.033 1.826-1.785 1.745-1.785 4.951zm69.923 19.439h-6.615V30.07h8.807l4.667 13.555q.243.69.406 1.46.203.731.324 1.42.163.731.284 1.462h.406q.122-.73.284-1.461.203-.69.365-1.42.203-.772.406-1.461l4.302-13.555h8.888v42.652h-6.656V45.086q0-1.38.122-2.882.122-1.46.243-2.719.122-1.46.284-2.881h-.527q-.284 1.34-.65 2.678l-.608 2.354q-.284 1.177-.568 2.192l-3.085 10.105h-6.168l-3.287-10.105q-.284-1.015-.569-2.192-.284-1.258-.608-2.354-.284-1.339-.528-2.678h-.609q.203 1.42.366 2.881.121 1.258.203 2.72.121 1.5.121 2.88zm28.854-9.131q0-2.435.893-4.343.893-1.948 2.557-3.287 1.664-1.38 3.977-2.07 2.394-.77 5.276-.77h8.197v-2.8q0-2.233-1.704-3.532-1.664-1.38-4.627-1.38-2.435 0-4.098.893-1.664.893-2.151 2.435h-7.305q.77-4.26 4.383-6.696 3.652-2.475 9.171-2.475 3.125 0 5.682.77 2.557.69 4.302 2.111 1.785 1.38 2.76 3.368 1.014 1.948 1.014 4.383v22.523h-7.021V66.31h-.487q-.568 3.206-3.368 5.073-2.72 1.908-6.818 1.908-4.87 0-7.751-2.598-2.882-2.678-2.882-7.102zm13.19 3.896q3.368 0 5.518-1.583 2.192-1.664 2.192-4.14v-3.814h-8.117q-2.516 0-3.936 1.258t-1.42 3.49 1.501 3.57q1.542 1.218 4.261 1.218zm31.207 5.235h-7.426V40.135h7.061v5.64h.528q.527-2.962 2.8-4.585 2.232-1.623 5.803-1.623 4.91 0 7.832 3.165 2.922 3.206 2.922 8.644v21.346h-7.426V52.268q0-2.962-1.583-4.626-1.623-1.705-4.423-1.705-2.841 0-4.505 1.786-1.583 1.704-1.583 4.748zm26.622-9.131q0-2.435.893-4.302.893-1.989 2.557-3.328 1.664-1.38 3.977-2.07 2.394-.77 5.276-.77h8.197v-2.8q0-2.233-1.704-3.531-1.664-1.38-4.627-1.38-2.435 0-4.098.893-1.664.892-2.151 2.434h-7.305q.77-4.26 4.383-6.696 3.652-2.475 9.171-2.475 3.125 0 5.682.77 2.557.69 4.302 2.111 1.785 1.38 2.76 3.369 1.014 1.988 1.014 4.382v22.523h-7.021v-6.411h-.487q-.568 3.205-3.368 5.113-2.72 1.867-6.818 1.867-4.87 0-7.751-2.598-2.882-2.678-2.882-7.102zm13.19 3.896q3.368 0 5.518-1.583 2.192-1.664 2.192-4.14v-3.814h-8.117q-2.516 0-3.936 1.258t-1.42 3.49q0 2.272 1.501 3.57 1.542 1.218 4.261 1.218zm22.97-10.064v-5.276q0-2.841.77-5.113.812-2.395 2.314-4.059 1.46-1.623 3.53-2.516 2.11-.893 4.627-.893 3.693 0 6.046 1.786 2.395 1.704 2.963 4.708h.446v-5.925h7.102v30.559q0 2.719-.933 4.91-.974 2.15-2.76 3.693-1.745 1.502-4.301 2.354-2.517.811-5.6.811h-8.685v-6.128h8.684q2.882 0 4.545-1.501 1.624-1.461 1.624-4.14v-.649l.243-6.493h-.365q-.568 3.003-3.003 4.789-2.354 1.704-6.006 1.704-2.516 0-4.627-.893-2.07-.892-3.53-2.556-1.502-1.624-2.314-3.937-.77-2.394-.77-5.235zm7.466-5.073v4.91q0 3.003 1.705 4.748 1.745 1.624 4.748 1.624 2.963 0 4.708-1.705 1.745-1.704 1.745-4.667v-4.91q0-2.963-1.745-4.667-1.745-1.745-4.708-1.745-3.003 0-4.748 1.745-1.704 1.704-1.704 4.667zm42.571 20.94q-3.206 0-5.843-.892-2.638-.933-4.464-2.597t-2.841-4.018-1.015-5.276V52.27q0-2.881 1.015-5.235 1.014-2.394 2.84-4.058 1.827-1.624 4.465-2.516 2.637-.893 5.843-.893t5.844.933q2.598.893 4.424 2.557t2.84 4.018 1.015 5.275v5.925h-20.94v2.11q0 3.247 1.786 5.114 1.826 1.826 5.032 1.826 2.435 0 4.099-.73 1.745-.771 2.435-2.192h7.304q-.527 2.03-1.785 3.693t-3.085 2.841q-1.785 1.136-4.098 1.786-2.232.568-4.87.568zm-6.817-20.006h13.636v-.934q0-3.246-1.745-5.032-1.786-1.826-5.073-1.826-3.206 0-5.032 1.826-1.786 1.786-1.786 4.951zm29.99 19.439V40.177h6.98v5.6h.527q.61-2.962 2.963-4.545 2.394-1.664 6.087-1.664 5.276 0 8.238 3.247Q800 46.06 800 51.824v2.354h-7.792v-1.705q0-3.125-1.704-4.87-1.705-1.745-4.748-1.745-2.841 0-4.505 1.745-1.623 1.786-1.623 4.87v20.251z" class="a"/></svg>